<?xml version="1.0" encoding="utf-8"?>
<!-- Generator: Adobe Illustrator 16.0.0, SVG Export Plug-In . SVG Version: 6.00 Build 0)  -->
<!DOCTYPE svg PUBLIC "-//W3C//DTD SVG 1.1//EN" "http://www.w3.org/Graphics/SVG/1.1/DTD/svg11.dtd">
<svg version="1.1" id="Layer_1" xmlns="http://www.w3.org/2000/svg" xmlns:xlink="http://www.w3.org/1999/xlink" x="0px" y="0px"
	 width="238.415px" height="34.713px" viewBox="0 0 238.415 34.713" enable-background="new 0 0 238.415 34.713"
	 xml:space="preserve">
<g>
	<defs>
		<rect id="SVGID_1_" width="238.415" height="34.713"/>
	</defs>
	<clipPath id="SVGID_2_">
		<use xlink:href="#SVGID_1_"  overflow="visible"/>
	</clipPath>
	<path clip-path="url(#SVGID_2_)" fill="#00377B" d="M47.237,3.368H17.101c0,0-5.302-0.614-5.958,10.102
		c0,0,0.345-3.972,3.714-4.057h31.171c0,0,3.744,0.288,4.059-9.413C50.087,0,49.914,2.763,47.237,3.368"/>
	<path clip-path="url(#SVGID_2_)" fill="#00377B" d="M11.661,25.128h30.482c0,0,4.68-0.816,0.95,9.586c0,0,0.432-3.974-3.886-3.541
		H11.143c0,0-5.704,0.542-1.553-10.362C9.59,20.811,9.503,25.128,11.661,25.128"/>
	<polygon clip-path="url(#SVGID_2_)" fill="#00377B" points="22.886,14.162 39.812,14.162 38.171,20.033 21.419,20.033 	"/>
	<path clip-path="url(#SVGID_2_)" fill="#00377B" d="M4.798,19.914c0.119,0.289,0.312,0.309,0.532,0.338v0.243H2.972v-0.243
		c0.488-0.066,0.547-0.077,0.547-0.299c0-0.031-0.101-0.351-0.109-0.379L2.5,17.342l-0.067-0.02l-0.539,2.318
		c-0.016,0.078-0.016,0.177-0.016,0.204c0,0.35,0.268,0.389,0.555,0.407v0.243H0v-0.243c0.294-0.049,0.53-0.077,0.673-0.698
		L1.7,15.197c0.025-0.097,0.093-0.418,0.093-0.524c0-0.32-0.093-0.339-0.615-0.428v-0.242H3.79v0.242
		c-0.422,0.04-0.657,0.137-0.793,0.7l-0.504,2.144l0.042,0.009c0.522-0.513,1.035-1.027,1.533-1.572
		c0.715-0.776,0.715-0.901,0.715-1.008c0-0.214-0.143-0.233-0.472-0.273v-0.242h1.777v0.242c-0.303,0.05-0.413,0.059-0.791,0.466
		l-1.819,1.923L4.798,19.914z"/>
	<path clip-path="url(#SVGID_2_)" fill="#00377B" d="M8.016,20.495H5.522v-0.242c0.363-0.059,0.54-0.145,0.674-0.699l1.036-4.357
		c0,0,0.084-0.417,0.084-0.543c0-0.311-0.076-0.32-0.615-0.409v-0.242h2.509v0.242c-0.319,0.051-0.547,0.089-0.691,0.7L7.561,19.02
		c-0.059,0.244-0.152,0.651-0.152,0.816c0,0.33,0.177,0.397,0.607,0.417V20.495z"/>
	<path clip-path="url(#SVGID_2_)" fill="#00377B" d="M13.505,20.495H8.841v-0.242c0.335-0.067,0.53-0.098,0.673-0.699l1.035-4.357
		c0.017-0.077,0.084-0.397,0.084-0.543c0-0.311-0.092-0.329-0.614-0.409v-0.242h4.547l-0.363,1.845l-0.227-0.049
		c0-0.718,0-1.485-1.591-1.485c-0.354,0-0.421,0.156-0.489,0.427l-0.513,2.165c1.238,0.029,1.365-0.243,1.726-1.029l0.235,0.038
		l-0.623,2.65l-0.234-0.049c0.023-0.174,0.032-0.282,0.032-0.389c0-0.707-0.261-0.911-1.212-0.911l-0.471,2.028
		c-0.042,0.203-0.126,0.505-0.126,0.592c0,0.214,0.075,0.35,0.547,0.35c1.01,0,1.953-0.398,2.534-1.621l0.21,0.048L13.505,20.495z"
		/>
	<path clip-path="url(#SVGID_2_)" fill="#00377B" d="M17.488,14.74c0.042-0.213,0.101-0.426,0.378-0.426
		c0.54,0,0.792,0.34,0.792,0.922c0,0.583-0.219,1.388-0.842,1.621c-0.117,0.038-0.421,0.117-0.834,0.117L17.488,14.74z
		 M15.618,14.245c0.54,0.089,0.615,0.098,0.615,0.409c0,0.125-0.084,0.543-0.084,0.543l-1.035,4.356
		c-0.135,0.555-0.312,0.641-0.674,0.698v0.244h2.492v-0.244c-0.446-0.028-0.607-0.096-0.607-0.426c0-0.117,0.052-0.397,0.118-0.67
		l0.464-1.873h0.243l0.902,3.213h1.701v-0.244c-0.405-0.049-0.556-0.065-0.74-0.698l-0.699-2.386
		c1.102-0.205,1.616-1.02,1.616-1.757c0-1.408-1.483-1.408-1.987-1.408h-2.325V14.245z"/>
	<rect x="58.87" y="3.152" clip-path="url(#SVGID_2_)" fill="#00377B" width="1.925" height="2.483"/>
	<rect x="55.157" y="4.46" clip-path="url(#SVGID_2_)" fill="#00377B" width="9.323" height="1.48"/>
	<path clip-path="url(#SVGID_2_)" fill="#00377B" d="M63.627,8.575c0,2.181-1.705,3.946-3.809,3.946s-3.809-1.765-3.809-3.946
		c0-2.178,1.705-3.946,3.809-3.946S63.627,6.397,63.627,8.575 M59.818,6.347c-1.138,0-2.063,0.998-2.063,2.228
		c0,1.232,0.925,2.228,2.063,2.228c1.139,0,2.063-0.996,2.063-2.228C61.881,7.345,60.958,6.347,59.818,6.347"/>
	<path clip-path="url(#SVGID_2_)" fill="#00377B" d="M71.257,5.886V4.405H68.7c0,0-1.408,0.13-1.408,1.307v7.722h2.124V5.886H71.257
		z"/>
	<path clip-path="url(#SVGID_2_)" fill="#00377B" d="M86.598,12.791h2.039V5.559c0,0-0.171-1.078-1.706-1.078h-12.86v1.546h12.527
		V12.791z"/>
	<path clip-path="url(#SVGID_2_)" fill="#00377B" d="M102.37,20.077h2.039V5.582c0,0-0.148-1.167-1.704-1.167h-1.471V5.96h1.136
		V20.077z"/>
	<path clip-path="url(#SVGID_2_)" fill="#00377B" d="M123.8,20.077h2.039V5.494c0,0-0.171-1.079-1.705-1.079h-2.664V5.96h2.33
		V20.077z"/>
	<path clip-path="url(#SVGID_2_)" fill="#00377B" d="M198.432,13.455h2.037v-7.77c0,0,0.08-1.27-1.704-1.27h-3.014v1.546h2.681
		V13.455z"/>
	<path clip-path="url(#SVGID_2_)" fill="#00377B" d="M217.416,11.887h2.037V5.494c0,0-0.17-1.079-1.704-1.079h-12.902V5.96h12.569
		V11.887z"/>
	<path clip-path="url(#SVGID_2_)" fill="#00377B" d="M235.795,13.39h2.244V5.526c0,0-0.17-1.079-1.705-1.079h-2.543v1.546h2.004
		V13.39z"/>
	<path clip-path="url(#SVGID_2_)" fill="#00377B" d="M86.598,20.088h2.039v-3.986c0,0-0.171-1.078-1.706-1.078h-12.86v1.547h12.527
		V20.088z"/>
	<path clip-path="url(#SVGID_2_)" fill="#00377B" d="M57.238,15.002h-2.039v4.007c0,0,0.172,1.078,1.705,1.078h12.89v-1.545H57.238
		V15.002z"/>
	<path clip-path="url(#SVGID_2_)" fill="#00377B" d="M113.227,4.459h-2.04v9.454c0,0,0.172,1.078,1.705,1.078h8.739v-1.547h-8.404
		V4.459z"/>
	<path clip-path="url(#SVGID_2_)" fill="#00377B" d="M187.943,14.958h-2.039v4.03c0,0,0.171,1.078,1.706,1.078h12.83v-1.546h-12.497
		V14.958z"/>
	<path clip-path="url(#SVGID_2_)" fill="#00377B" d="M225.501,14.958h-2.039v4.03c0,0,0.171,1.078,1.704,1.078h12.831v-1.546
		h-12.496V14.958z"/>
	<rect x="74.057" y="11.865" clip-path="url(#SVGID_2_)" fill="#00377B" width="14.581" height="1.525"/>
	<rect x="80.139" y="12.802" clip-path="url(#SVGID_2_)" fill="#00377B" width="2.274" height="2.701"/>
	<path clip-path="url(#SVGID_2_)" fill="#00377B" d="M100.5,8.521c0,2.434-1.831,4.41-4.09,4.41c-2.26,0-4.09-1.976-4.09-4.41
		c0-2.435,1.83-4.41,4.09-4.41C98.668,4.112,100.5,6.086,100.5,8.521 M96.41,5.539c-1.359,0-2.463,1.335-2.463,2.983
		c0,1.647,1.104,2.984,2.463,2.984s2.462-1.337,2.462-2.984C98.872,6.874,97.769,5.539,96.41,5.539"/>
	<rect x="105.413" y="4.437" clip-path="url(#SVGID_2_)" fill="#00377B" width="1.982" height="15.641"/>
	<rect x="161.003" y="4.437" clip-path="url(#SVGID_2_)" fill="#00377B" width="1.98" height="15.641"/>
	<path clip-path="url(#SVGID_2_)" fill="#00377B" d="M142.473,4.438v8.637h-2.639c0,0-3.281,0.164-3.679-2.626V5.983h3.908V4.471
		h-10.104v1.513h3.865v4.618c0,0-0.283,2.723-4.405,2.482v1.831c0,0,3.837,0.567,5.572-2.157c0,0,1.135,2.331,5.085,2.201h2.396
		v5.076h1.98V4.438H142.473z"/>
	<path clip-path="url(#SVGID_2_)" fill="#00377B" d="M148.403,4.415h7.419c0,0,1.617-0.124,1.617,0.871v4.358
		c0,0-0.425,4.922-6.903,5.228h-2.104v-1.788h1.906c0,0,5.038-0.022,5.179-4.203v-2.92h-7.104L148.403,4.415z"/>
	<rect x="195.779" y="8.054" clip-path="url(#SVGID_2_)" fill="#00377B" width="3.895" height="1.546"/>
	<rect x="204.917" y="13.488" clip-path="url(#SVGID_2_)" fill="#00377B" width="14.593" height="1.547"/>
	<path clip-path="url(#SVGID_2_)" fill="#00377B" d="M193.504,8.522c0,2.434-1.831,4.409-4.089,4.409
		c-2.262,0-4.091-1.975-4.091-4.409c0-2.436,1.829-4.411,4.091-4.411C191.673,4.111,193.504,6.086,193.504,8.522 M189.415,5.922
		c-1.088,0-1.972,1.164-1.972,2.6c0,1.435,0.884,2.599,1.972,2.599s1.969-1.164,1.969-2.599
		C191.384,7.086,190.503,5.922,189.415,5.922"/>
	<rect x="167.077" y="10.667" clip-path="url(#SVGID_2_)" fill="#00377B" width="14.578" height="1.503"/>
	<path clip-path="url(#SVGID_2_)" fill="#00377B" d="M167.133,13.106h14.521v4.075h-12.625v1.307h12.625v1.546h-13.101
		c0,0-1.449,0.109-1.449-1.351v-3.028h12.569V14.71h-12.541V13.106z"/>
	<rect x="173.186" y="11.909" clip-path="url(#SVGID_2_)" fill="#00377B" width="2.305" height="2.199"/>
	<path clip-path="url(#SVGID_2_)" fill="#00377B" d="M175.49,4.415h-2.274v0.784c0,0,0.123,2.551-3.554,2.598h-2.528l0.019,1.512
		h2.425c0,0,3.11,0.129,4.803-1.604c0,0,1.563,1.567,4.86,1.546h2.388l0.021-1.487h-2.787c0,0-2.711,0.098-3.346-2.216L175.49,4.415
		z"/>
	<rect x="211.2" y="14.642" clip-path="url(#SVGID_2_)" fill="#00377B" width="1.996" height="5.392"/>
	<path clip-path="url(#SVGID_2_)" fill="#00377B" d="M231.305,6.963c0,1.914-1.526,3.465-3.409,3.465
		c-1.884,0-3.409-1.551-3.409-3.465c0-1.913,1.525-3.464,3.409-3.464C229.778,3.5,231.305,5.05,231.305,6.963 M227.896,4.876
		c-0.837,0-1.515,0.935-1.515,2.087c0,1.153,0.678,2.087,1.515,2.087c0.836,0,1.514-0.934,1.514-2.087
		C229.409,5.812,228.731,4.876,227.896,4.876"/>
	<rect x="223.518" y="11.473" clip-path="url(#SVGID_2_)" fill="#00377B" width="8.839" height="1.46"/>
	<rect x="226.907" y="12.651" clip-path="url(#SVGID_2_)" fill="#00377B" width="1.981" height="2.156"/>
	<path clip-path="url(#SVGID_2_)" fill="#00377B" d="M57.543,27.593l2.162-2.771h-1.321l-2.061,2.614v-2.609h-1.052v6.993h1.052
		v-3.495c2.842-0.145,2.422,3.49,2.422,3.49h1.153v-0.785C59.898,28.49,58.55,27.774,57.543,27.593"/>
	<path clip-path="url(#SVGID_2_)" fill="#00377B" d="M67.074,28.334c0,2.033-1.101,3.681-3.436,3.681
		c-2.186,0-3.436-1.647-3.436-3.681s1.144-3.681,3.436-3.681C65.908,24.653,67.074,26.301,67.074,28.334 M63.638,25.605
		c-1.397,0-2.121,1.221-2.121,2.729c0,1.506,0.639,2.729,2.121,2.729c1.417,0,2.12-1.224,2.12-2.729
		C65.758,26.826,65.098,25.605,63.638,25.605"/>
	<path clip-path="url(#SVGID_2_)" fill="#00377B" d="M143.626,28.334c0,2.033-1.103,3.681-3.435,3.681
		c-2.186,0-3.436-1.647-3.436-3.681s1.143-3.681,3.436-3.681C142.462,24.653,143.626,26.301,143.626,28.334 M140.191,25.605
		c-1.396,0-2.121,1.221-2.121,2.729c0,1.506,0.64,2.729,2.121,2.729c1.416,0,2.119-1.224,2.119-2.729
		C142.311,26.826,141.651,25.605,140.191,25.605"/>
	<path clip-path="url(#SVGID_2_)" fill="#00377B" d="M67.912,31.896v-7.123h2.578c0,0,2.472,0.021,2.472,2.614
		c0,0,0.213,1.748-1.641,2.564c0,0,1.066,0.491,1.023,1.911h-1.193c0,0-0.278-1.796-2.132-1.846v1.879H67.912z M70.22,29.303
		c1.662-0.653,1.485-1.949,1.485-1.949c0-1.78-1.684-1.688-1.684-1.688h-0.994v3.377C69.396,29.032,70.22,29.303,70.22,29.303"/>
	<path clip-path="url(#SVGID_2_)" fill="#00377B" d="M170.436,31.896v-7.123h2.581c0,0,2.473,0.021,2.473,2.614
		c0,0,0.212,1.748-1.642,2.564c0,0,1.064,0.491,1.021,1.911h-1.192c0,0-0.278-1.796-2.131-1.846v1.879H170.436z M172.747,29.303
		c1.659-0.653,1.483-1.949,1.483-1.949c0-1.78-1.683-1.688-1.683-1.688h-0.995v3.377C171.921,29.032,172.747,29.303,172.747,29.303"
		/>
	<path clip-path="url(#SVGID_2_)" fill="#00377B" d="M193.612,31.896v-7.123h2.58c0,0,2.472,0.021,2.472,2.614
		c0,0,0.213,1.748-1.641,2.564c0,0,1.065,0.491,1.023,1.911h-1.194c0,0-0.278-1.796-2.131-1.846v1.879H193.612z M195.924,29.303
		c1.66-0.653,1.482-1.949,1.482-1.949c0-1.78-1.683-1.688-1.683-1.688h-0.994v3.377C195.099,29.032,195.924,29.303,195.924,29.303"
		/>
	<path clip-path="url(#SVGID_2_)" fill="#00377B" d="M220.619,31.896v-7.123h2.579c0,0,2.472,0.021,2.472,2.614
		c0,0,0.215,1.748-1.64,2.564c0,0,1.065,0.491,1.023,1.911h-1.194c0,0-0.277-1.796-2.132-1.846v1.879H220.619z M222.929,29.303
		c1.662-0.653,1.483-1.949,1.483-1.949c0-1.78-1.683-1.688-1.683-1.688h-0.994v3.377C222.104,29.032,222.929,29.303,222.929,29.303"
		/>
	<polygon clip-path="url(#SVGID_2_)" fill="#00377B" points="77.737,25.731 77.737,24.806 73.879,24.806 73.879,31.847 
		77.779,31.847 77.779,30.898 74.987,30.898 74.987,25.736 	"/>
	<rect x="74.838" y="27.408" clip-path="url(#SVGID_2_)" fill="#00377B" width="2.672" height="0.893"/>
	<polygon clip-path="url(#SVGID_2_)" fill="#00377B" points="132.133,25.731 132.133,24.806 128.276,24.806 128.276,31.847 
		132.177,31.847 132.177,30.898 129.385,30.898 129.385,25.736 	"/>
	<rect x="129.235" y="27.408" clip-path="url(#SVGID_2_)" fill="#00377B" width="2.671" height="0.893"/>
	<polygon clip-path="url(#SVGID_2_)" fill="#00377B" points="145.723,31.668 145.726,25.572 149.049,25.567 149.049,24.643 
		144.617,24.643 144.617,31.668 	"/>
	<rect x="145.577" y="27.408" clip-path="url(#SVGID_2_)" fill="#00377B" width="3.022" height="0.893"/>
	<polygon clip-path="url(#SVGID_2_)" fill="#00377B" points="158.118,25.731 158.118,24.806 154.259,24.806 154.259,31.847 
		158.158,31.847 158.158,30.898 155.368,30.898 155.368,25.736 	"/>
	<rect x="155.217" y="27.408" clip-path="url(#SVGID_2_)" fill="#00377B" width="2.672" height="0.893"/>
	<polygon clip-path="url(#SVGID_2_)" fill="#00377B" points="169.456,25.731 169.456,24.806 165.599,24.806 165.599,31.847 
		169.499,31.847 169.499,30.898 166.707,30.898 166.707,25.736 	"/>
	<rect x="166.557" y="27.408" clip-path="url(#SVGID_2_)" fill="#00377B" width="2.672" height="0.893"/>
	<polygon clip-path="url(#SVGID_2_)" fill="#00377B" points="203.135,25.731 203.135,24.806 199.275,24.806 199.275,31.847 
		203.177,31.847 203.177,30.898 200.386,30.898 200.386,25.736 	"/>
	<rect x="200.235" y="27.408" clip-path="url(#SVGID_2_)" fill="#00377B" width="2.672" height="0.893"/>
	<polygon clip-path="url(#SVGID_2_)" fill="#00377B" points="213.622,25.731 213.622,24.806 209.764,24.806 209.764,31.847 
		213.665,31.847 213.665,30.898 210.872,30.898 210.872,25.736 	"/>
	<rect x="210.723" y="27.408" clip-path="url(#SVGID_2_)" fill="#00377B" width="2.67" height="0.893"/>
	<rect x="79.579" y="27.408" clip-path="url(#SVGID_2_)" fill="#00377B" width="3.294" height="0.893"/>
	<path clip-path="url(#SVGID_2_)" fill="#00377B" d="M79.727,31.862V26.59c0-0.618,0.656-1.12,1.463-1.12
		c0.809,0,1.465,0.502,1.465,1.12v5.272h1.15v-5.392c0-1.083-1.17-1.959-2.615-1.959c-1.443,0-2.614,0.876-2.614,1.959v5.392H79.727
		z"/>
	<rect x="215.377" y="27.408" clip-path="url(#SVGID_2_)" fill="#00377B" width="3.295" height="0.893"/>
	<path clip-path="url(#SVGID_2_)" fill="#00377B" d="M215.525,31.862V26.59c0-0.618,0.654-1.12,1.464-1.12
		c0.808,0,1.464,0.502,1.464,1.12v5.272h1.148v-5.392c0-1.083-1.17-1.959-2.612-1.959c-1.444,0-2.613,0.876-2.613,1.959v5.392
		H215.525z"/>
	<path clip-path="url(#SVGID_2_)" fill="#00377B" d="M120.511,24.772v5.271c0,0.619-0.486,1.035-1.293,1.035
		c-0.81,0-1.315-0.416-1.315-1.035v-5.271h-1.15v5.392c0,1.082,1.022,1.879,2.465,1.879c1.442,0,2.442-0.797,2.442-1.879v-5.392
		H120.511z"/>
	<rect x="88.672" y="24.772" clip-path="url(#SVGID_2_)" fill="#00377B" width="1.258" height="7.123"/>
	<rect x="104.929" y="25.382" clip-path="url(#SVGID_2_)" fill="#00377B" width="1.257" height="6.514"/>
	<rect x="108.982" y="24.772" clip-path="url(#SVGID_2_)" fill="#00377B" width="1.257" height="7.123"/>
	<polygon clip-path="url(#SVGID_2_)" fill="#00377B" points="95.461,24.772 95.461,29.836 92.37,24.772 91.111,24.772 
		91.111,31.896 92.37,31.896 92.37,26.832 95.461,31.896 96.717,31.896 96.717,24.772 	"/>
	<polygon clip-path="url(#SVGID_2_)" fill="#00377B" points="163.339,24.772 163.339,29.836 160.418,24.772 159.16,24.772 
		159.16,31.896 160.418,31.896 160.418,26.832 163.339,31.896 164.597,31.896 164.597,24.772 	"/>
	<rect x="102.875" y="24.826" clip-path="url(#SVGID_2_)" fill="#00377B" width="5.229" height="0.96"/>
	<rect x="112.801" y="25.382" clip-path="url(#SVGID_2_)" fill="#00377B" width="1.258" height="6.514"/>
	<rect x="110.747" y="24.826" clip-path="url(#SVGID_2_)" fill="#00377B" width="5.23" height="0.96"/>
	<rect x="124.289" y="25.382" clip-path="url(#SVGID_2_)" fill="#00377B" width="1.258" height="6.514"/>
	<rect x="122.237" y="24.826" clip-path="url(#SVGID_2_)" fill="#00377B" width="5.228" height="0.96"/>
	<path clip-path="url(#SVGID_2_)" fill="#00377B" d="M102.349,26.918h-1.136v-0.436c0,0-0.199-0.859-1.195-0.859
		c0,0-0.98-0.067-0.98,0.859c0,0-0.1,0.807,1.222,1.219c0,0,2.246,0.633,2.174,1.929v0.578c0,0,0.157,1.414-1.918,1.785h-0.654
		c0,0-2.018,0.109-2.259-1.851v-0.764h1.151v0.414c0,0-0.114,1.264,1.293,1.264c0,0,1.207,0.1,1.279-0.99
		c0,0,0.056-0.609-0.425-0.895c0,0-0.953-0.533-1.82-0.857c0,0-1.321-0.525-1.308-1.821c0,0-0.112-1.864,2.359-1.864
		c0,0,1.99-0.02,2.217,1.733V26.918z"/>
	<path clip-path="url(#SVGID_2_)" fill="#00377B" d="M208.882,26.918h-1.138v-0.436c0,0-0.197-0.859-1.192-0.859
		c0,0-0.981-0.067-0.981,0.859c0,0-0.099,0.807,1.221,1.219c0,0,2.247,0.633,2.177,1.929v0.578c0,0,0.154,1.414-1.92,1.785h-0.652
		c0,0-2.019,0.109-2.26-1.851v-0.764h1.151v0.414c0,0-0.114,1.264,1.291,1.264c0,0,1.209,0.1,1.281-0.99
		c0,0,0.055-0.609-0.428-0.895c0,0-0.95-0.533-1.818-0.857c0,0-1.322-0.525-1.306-1.821c0,0-0.115-1.864,2.356-1.864
		c0,0,1.99-0.02,2.218,1.733V26.918z"/>
	<polygon clip-path="url(#SVGID_2_)" fill="#00377B" points="237.157,24.772 237.157,27.658 234.264,27.658 234.264,24.772 
		233.008,24.772 233.008,31.896 234.264,31.896 234.264,28.616 237.157,28.616 237.157,31.896 238.415,31.896 238.415,24.772 	"/>
	<path clip-path="url(#SVGID_2_)" fill="#00377B" d="M232.017,29.345c-0.353,1.006-1.224,1.719-2.303,1.719
		c-1.48,0-2.121-1.224-2.121-2.73s0.819-2.802,2.218-2.802c0.722,0,1.311,0.318,1.723,0.822v-1.377
		c-0.46-0.267-1.021-0.423-1.691-0.423c-2.544,0-3.563,1.747-3.563,3.779c0,2.034,1.076,3.792,3.435,3.792
		c1.006,0,1.76-0.296,2.303-0.776V29.345z"/>
	<polygon clip-path="url(#SVGID_2_)" fill="#00377B" points="188.987,24.806 187.737,24.806 186.088,27.695 184.44,24.806 
		183.189,24.806 185.514,28.729 185.514,31.891 186.678,31.891 186.678,28.704 	"/>
	<path clip-path="url(#SVGID_2_)" fill="#00377B" d="M178.835,27.333v0.919h2.752c0,0.027,0.002,0.054,0.002,0.082
		c0,1.506-0.474,2.729-2.121,2.729c-1.636,0-2.121-1.224-2.121-2.729c0-1.508,0.528-2.794,2.121-2.794
		c0.902,0,1.442,0.37,1.755,0.941v-1.365c-0.49-0.376-1.068-0.539-1.755-0.539c-2.291,0-3.494,1.769-3.494,3.801
		c0,2.034,1.177,3.78,3.494,3.78c2.692,0,3.353-1.787,3.353-3.824c0-0.347-0.022-0.6-0.022-1.001H178.835z"/>
	<path clip-path="url(#SVGID_2_)" fill="#00377B" d="M175.545,5.614c0,0,0.593,2.021,3.265,2.17l-0.484,0.817l-2.077-0.669
		l-1.074-1.297l0.26-1.151"/>
</g>
</svg>
