<?xml version="1.0" encoding="utf-8"?>
<!-- Generator: Adobe Illustrator 16.0.0, SVG Export Plug-In . SVG Version: 6.00 Build 0)  -->
<!DOCTYPE svg PUBLIC "-//W3C//DTD SVG 1.1//EN" "http://www.w3.org/Graphics/SVG/1.1/DTD/svg11.dtd">
<svg version="1.1" id="Layer_1" xmlns="http://www.w3.org/2000/svg" xmlns:xlink="http://www.w3.org/1999/xlink" x="0px" y="0px"
	 width="226px" height="25px" viewBox="0 0 226 25" enable-background="new 0 0 226 25" xml:space="preserve">
<g>
	<path fill="#FFFFFF" d="M133.318,5.854c-0.238,0.135-0.563,0.203-0.977,0.203c-0.412,0-0.74-0.07-0.98-0.208
		C131.119,5.71,131,5.526,131,5.296c0-0.238,0.119-0.425,0.361-0.56c0.24-0.135,0.568-0.202,0.98-0.202
		c0.404,0,0.729,0.067,0.969,0.202c0.244,0.135,0.363,0.321,0.363,0.56C133.674,5.533,133.555,5.72,133.318,5.854z M133.9,0.24
		h-3.152v1.094h3.152V0.24z M135.316,1.905h-5.982v1.106h5.982V1.905z M138.719,3.297H137.4V0.311h-1.25v7.673h1.25V4.558h1.318
		V3.297z M134.293,4.005c-0.475-0.361-1.129-0.542-1.963-0.542c-0.785,0-1.432,0.179-1.939,0.536
		c-0.506,0.356-0.76,0.793-0.76,1.309c0,0.476,0.252,0.898,0.756,1.268c0.502,0.369,1.146,0.553,1.932,0.553
		c0.834,0,1.49-0.183,1.969-0.548c0.48-0.364,0.721-0.788,0.721-1.272C135.008,4.8,134.77,4.365,134.293,4.005z M137.721,9.341
		h-5.652V7.64h-1.32v2.902h6.973V9.341z"/>
	<path fill="#FFFFFF" d="M149.209,5.591h-4.248v1.738h3.07v3.45h-1.238V8.542h-5.936V7.329h2.795V5.591h-3.867V4.391h6.592
		c0.072-0.333,0.148-0.725,0.232-1.178c0.082-0.451,0.141-0.897,0.174-1.332h-5.949V0.679h7.387c0,0.19-0.027,0.496-0.084,0.916
		c-0.055,0.42-0.105,0.774-0.154,1.059c-0.07,0.396-0.131,0.724-0.18,0.981c-0.045,0.258-0.098,0.51-0.152,0.755h1.559V5.591z"/>
	<path fill="#FFFFFF" d="M159.404,7.873h-1.238V3.959h-1.891V2.698h1.891V0.307h1.238V7.873z M159.607,10.538h-7.092V7.125h1.238
		v2.213h5.854V10.538z M153.219,2.127h-1.809V0.902h4.949v1.226h-1.82v0.154c0,0.42,0.076,0.802,0.232,1.143
		c0.154,0.342,0.367,0.635,0.635,0.88c0.271,0.246,0.51,0.433,0.715,0.56c0.207,0.127,0.439,0.238,0.701,0.333l-0.748,1.07
		c-0.176-0.071-0.354-0.158-0.537-0.261c-0.182-0.103-0.404-0.258-0.664-0.464c-0.207-0.158-0.387-0.322-0.543-0.493
		c-0.154-0.17-0.303-0.347-0.445-0.53c-0.104,0.199-0.234,0.398-0.393,0.602c-0.158,0.202-0.352,0.402-0.584,0.601
		c-0.252,0.222-0.492,0.401-0.719,0.535c-0.227,0.135-0.432,0.25-0.613,0.346l-0.879-1.036c0.27-0.126,0.541-0.282,0.82-0.463
		c0.277-0.183,0.57-0.42,0.881-0.714c0.244-0.246,0.443-0.551,0.594-0.916c0.15-0.365,0.227-0.761,0.227-1.19V2.127z"/>
	<path fill="#FFFFFF" d="M163.814,2.58h-2.059V1.377h5.447V2.58h-2.068v0.439c0,0.294,0.051,0.748,0.154,1.363
		c0.102,0.614,0.318,1.167,0.643,1.659c0.293,0.428,0.598,0.778,0.916,1.047c0.316,0.27,0.551,0.452,0.701,0.547l-0.797,1.036
		c-0.096-0.064-0.275-0.192-0.541-0.387c-0.266-0.194-0.533-0.454-0.803-0.78c-0.207-0.253-0.383-0.507-0.529-0.761
		c-0.148-0.253-0.275-0.503-0.387-0.749c-0.111,0.294-0.248,0.579-0.41,0.856c-0.162,0.278-0.371,0.571-0.625,0.881
		c-0.215,0.262-0.43,0.488-0.643,0.678c-0.215,0.191-0.455,0.385-0.727,0.583l-1.023-0.905c0.422-0.293,0.809-0.622,1.16-0.987
		c0.354-0.365,0.648-0.766,0.887-1.202c0.262-0.491,0.443-1.02,0.547-1.587s0.156-0.998,0.156-1.292V2.58z M170.916,5.66h-1.332
		v5.116h-1.236V0.307h1.236v4.044h1.332V5.66z"/>
	<path fill="#FFFFFF" d="M178.279,9.653c-0.426,0.134-0.979,0.202-1.658,0.202c-0.693,0-1.244-0.073-1.654-0.22
		c-0.414-0.146-0.621-0.335-0.621-0.564c0-0.246,0.209-0.423,0.625-0.529c0.416-0.107,0.971-0.161,1.66-0.161
		c0.682,0,1.234,0.06,1.654,0.179c0.42,0.119,0.631,0.296,0.631,0.535C178.916,9.333,178.703,9.519,178.279,9.653z M179.451,7.803
		c-0.658-0.344-1.604-0.517-2.83-0.517c-1.24,0-2.182,0.165-2.828,0.494s-0.969,0.764-0.969,1.303c0,0.531,0.33,0.971,0.988,1.32
		c0.658,0.349,1.594,0.523,2.809,0.523c1.227,0,2.172-0.166,2.83-0.5s0.986-0.766,0.986-1.297
		C180.438,8.591,180.109,8.149,179.451,7.803z M181.33,5.645h-4.01V4.871h2.975V3.788h-5.924V3.182h5.77v-1h-5.77V1.575h5.793V0.492
		h-7.078v4.379h2.83v0.774h-4.01v1.141h9.424V5.645z"/>
	<path fill="#FFFFFF" d="M191.371,7.873h-1.25V0.307h1.25V7.873z M191.584,10.538h-7.066V7.267h1.262v2.071h5.805V10.538z
		 M189.064,5.303l-0.727,1.047c-0.176-0.071-0.408-0.199-0.703-0.381c-0.293-0.182-0.566-0.393-0.82-0.631
		c-0.176-0.166-0.336-0.337-0.482-0.511c-0.146-0.174-0.287-0.373-0.422-0.596c-0.109,0.215-0.246,0.432-0.404,0.65
		c-0.16,0.217-0.352,0.446-0.582,0.683c-0.248,0.254-0.498,0.475-0.756,0.66c-0.258,0.188-0.488,0.335-0.684,0.447l-0.869-0.976
		c0.309-0.175,0.629-0.39,0.957-0.648c0.328-0.258,0.629-0.565,0.898-0.922c0.309-0.396,0.516-0.799,0.619-1.207
		c0.104-0.41,0.154-0.832,0.154-1.269V0.592h1.32V1.65c0,0.42,0.059,0.831,0.174,1.232c0.113,0.4,0.303,0.763,0.564,1.088
		c0.27,0.326,0.564,0.602,0.887,0.827C188.51,5.023,188.801,5.192,189.064,5.303z"/>
	<path fill="#FFFFFF" d="M197.402,2.27c0.229,0.293,0.346,0.642,0.346,1.046c0,0.397-0.117,0.742-0.346,1.035
		c-0.23,0.294-0.568,0.441-1.012,0.441c-0.438,0-0.771-0.147-1.004-0.441c-0.234-0.293-0.352-0.638-0.352-1.035
		c0-0.404,0.117-0.753,0.352-1.046c0.232-0.293,0.566-0.44,1.004-0.44C196.834,1.83,197.172,1.977,197.402,2.27z M197.594,0.907
		c-0.359-0.186-0.76-0.279-1.203-0.279c-0.762,0-1.391,0.264-1.887,0.791c-0.494,0.527-0.742,1.16-0.742,1.897
		c0,0.738,0.248,1.369,0.742,1.892c0.496,0.524,1.125,0.786,1.887,0.786c0.451,0,0.859-0.097,1.221-0.292
		c0.359-0.194,0.658-0.45,0.896-0.768h2.285v2.938h1.236V0.307h-1.236V1.65h-2.32C198.242,1.342,197.949,1.094,197.594,0.907z
		 M199.014,3.549c0.004-0.077,0.006-0.154,0.006-0.233c0-0.086-0.004-0.17-0.012-0.249s-0.016-0.159-0.023-0.239h1.809v0.94h-1.797
		C199.004,3.697,199.01,3.624,199.014,3.549z M202.244,9.337h-5.83V7.183h-1.283v3.355h7.113V9.337z"/>
	<path fill="#FFFFFF" d="M213.451,6.415h-4.293v4.367h-1.273V6.415h-3.855V5.214h6.508c0.088-0.286,0.184-0.745,0.291-1.38
		s0.178-1.229,0.209-1.786h-5.949V0.848h7.377c0,0.175-0.033,0.537-0.096,1.088c-0.064,0.551-0.127,1.017-0.189,1.398
		c-0.057,0.389-0.125,0.755-0.203,1.101c-0.08,0.344-0.135,0.604-0.166,0.779h1.641V6.415z"/>
	<path fill="#FFFFFF" d="M219.375,1.483c0.203,0.21,0.305,0.406,0.305,0.588c0,0.167-0.1,0.352-0.297,0.553
		c-0.199,0.203-0.533,0.304-1,0.304c-0.445,0-0.77-0.102-0.977-0.304c-0.205-0.202-0.309-0.386-0.309-0.553
		c0-0.183,0.098-0.378,0.297-0.588s0.527-0.315,0.988-0.315C218.842,1.168,219.174,1.273,219.375,1.483z M223.557,0.299h-1.236
		v5.914h-2.203v1.143h2.203v0.844h1.236V0.299z M221.998,4.249c-0.23,0.056-0.775,0.122-1.635,0.196
		c-0.861,0.076-1.555,0.113-2.076,0.113h-3.213v1.225h2.201v1.761h1.297V5.772c0.326,0,0.879-0.034,1.66-0.101
		c0.781-0.068,1.369-0.141,1.766-0.22V4.249z M223.771,9.33h-5.818V7.961h-1.309v2.569h7.127V9.33z M216.496,0.71
		c-0.434,0.393-0.648,0.847-0.648,1.362c0,0.524,0.213,0.979,0.643,1.369c0.428,0.388,1.059,0.583,1.893,0.583
		c0.824,0,1.451-0.192,1.879-0.577c0.43-0.384,0.643-0.843,0.643-1.375c0-0.515-0.209-0.969-0.625-1.362
		c-0.416-0.392-1.049-0.589-1.896-0.589C217.557,0.121,216.928,0.318,216.496,0.71z"/>
	<g>
		<rect x="110.871" y="0.182" fill="#FFFFFF" width="9.219" height="23.148"/>
		<polygon fill="#FFFFFF" points="36.02,0.182 36.02,5.052 46.801,5.052 46.801,23.33 56.046,23.33 56.046,5.052 66.831,5.052 
			66.831,0.182 		"/>
		<path fill="#FFFFFF" d="M30.563,5.052V0.182H0.456V18.9c0,2.441,1.981,4.424,4.423,4.424h25.685v-4.875H9.703v-4.262h20.86V9.316
			H9.703V5.052H30.563z"/>
		<g>
			<polygon fill="#FFFFFF" points="94.631,12.534 83.75,12.534 96.231,24.88 107.114,24.88 			"/>
			<path fill="#FFFFFF" d="M99.459,0.182H71.463V23.33h9.246V5.052h13.925v7.482h9.249V4.601
				C103.883,2.159,101.904,0.182,99.459,0.182z"/>
		</g>
	</g>
	<path fill="#FFFFFF" d="M129.289,16.248h1.943l1.559,5.213h0.029l1.422-5.213h2.135l1.531,5.213h0.027l1.465-5.213h1.75
		l-2.16,7.047h-2.162l-1.533-5.378h-0.027l-1.506,5.378h-2.092L129.289,16.248z"/>
	<path fill="#FFFFFF" d="M141.451,16.248h1.943l1.561,5.213h0.027l1.422-5.213h2.135l1.531,5.213h0.027l1.465-5.213h1.75
		l-2.16,7.047h-2.16l-1.535-5.378h-0.025l-1.506,5.378h-2.094L141.451,16.248z"/>
	<path fill="#FFFFFF" d="M153.613,16.248h1.943l1.561,5.213h0.027l1.422-5.213h2.135l1.533,5.213h0.027l1.463-5.213h1.752
		l-2.162,7.047h-2.162l-1.531-5.378h-0.029l-1.504,5.378h-2.094L153.613,16.248z"/>
	<path fill="#FFFFFF" d="M165.818,21.377h1.916v1.918h-1.916V21.377z"/>
	<path fill="#FFFFFF" d="M170.922,19.08c0.082-0.944,0.602-1.655,1.629-1.655c1.025,0,1.438,0.767,1.49,1.655H170.922z
		 M175.273,21.405c-0.684,0.384-1.449,0.712-2.34,0.712c-1.135,0-1.93-0.643-2.012-1.778h4.871c0-2.463-0.738-4.255-3.352-4.255
		c-2.189,0-3.271,1.683-3.271,3.722c0,2.312,1.357,3.652,3.682,3.652c0.984,0,1.752-0.191,2.422-0.562V21.405z"/>
	<path fill="#FFFFFF" d="M177.832,17.589h-1.355v-1.341h1.355v-1.409l1.832-0.588v1.997h1.629v1.341h-1.629v3.283
		c0,0.603,0.166,1.163,0.861,1.163c0.33,0,0.645-0.068,0.836-0.191l0.055,1.451c-0.383,0.108-0.809,0.163-1.355,0.163
		c-1.436,0-2.229-0.89-2.229-2.284V17.589z"/>
	<path fill="#FFFFFF" d="M182.592,16.248h1.629v1.601h0.027c0.082-0.656,0.834-1.765,1.928-1.765c0.18,0,0.371,0,0.563,0.055v1.847
		c-0.164-0.095-0.492-0.15-0.82-0.15c-1.492,0-1.492,1.861-1.492,2.872v2.588h-1.834V16.248z"/>
	<path fill="#FFFFFF" d="M187.914,16.248h1.834v7.047h-1.834V16.248z M187.914,13.21h1.834v1.752h-1.834V13.21z"/>
	<path fill="#FFFFFF" d="M191.676,21.377h1.916v1.918h-1.916V21.377z"/>
	<path fill="#FFFFFF" d="M195.521,16.248h1.627v1.601h0.029c0.082-0.656,0.834-1.765,1.928-1.765c0.178,0,0.369,0,0.561,0.055v1.847
		c-0.164-0.095-0.492-0.15-0.82-0.15c-1.492,0-1.492,1.861-1.492,2.872v2.588h-1.832V16.248z"/>
	<path fill="#FFFFFF" d="M201.859,19.08c0.08-0.944,0.602-1.655,1.627-1.655s1.438,0.767,1.492,1.655H201.859z M206.209,21.405
		c-0.684,0.384-1.451,0.712-2.34,0.712c-1.135,0-1.93-0.643-2.01-1.778h4.869c0-2.463-0.738-4.255-3.354-4.255
		c-2.188,0-3.268,1.683-3.268,3.722c0,2.312,1.354,3.652,3.68,3.652c0.984,0,1.752-0.191,2.422-0.562V21.405z"/>
	<path fill="#FFFFFF" d="M208.166,21.377h1.914v1.918h-1.914V21.377z"/>
	<path fill="#FFFFFF" d="M212.012,13.033h1.832v6.032h0.027l2.188-2.817h2.164l-2.629,3.146l2.955,3.9h-2.326l-2.352-3.421h-0.027
		v3.421h-1.832V13.033z"/>
	<path fill="#FFFFFF" d="M219.617,16.248h1.627v1.601h0.027c0.082-0.656,0.834-1.765,1.93-1.765c0.178,0,0.369,0,0.563,0.055v1.847
		c-0.166-0.095-0.494-0.15-0.822-0.15c-1.49,0-1.49,1.861-1.49,2.872v2.588h-1.834V16.248z"/>
</g>
</svg>
